<svg width="40" height="40" viewBox="0 0 40 40" fill="none" xmlns="http://www.w3.org/2000/svg">
<path d="M33.6842 16.8421H10.5263V30.1754C10.5263 35.1754 11.9737 36.8421 16.3158 36.8421H27.8947C32.2368 36.8421 33.6842 35.1754 33.6842 30.1754V16.8421Z" fill="#ADD4FF"/>
<path d="M35.7895 11.7895V13.4737C35.7895 15.3263 35.0261 16.8421 32.9086 16.8421H11.302C9.09809 16.8421 8.42108 15.3263 8.42108 13.4737V11.7895C8.42108 9.93687 9.09809 8.42108 11.302 8.42108H32.9086C35.0261 8.42108 35.7895 9.93687 35.7895 11.7895Z" fill="#ADD4FF"/>
<path opacity="0.4" d="M19.3991 8.33336H10.1991C9.63238 7.71669 9.64905 6.76669 10.2491 6.16669L12.6157 3.80002C13.2324 3.18336 14.2491 3.18336 14.8657 3.80002L19.3991 8.33336Z" fill="#ADD4FF"/>
<path opacity="0.4" d="M29.7839 8.33336H20.5839L25.1172 3.80002C25.7339 3.18336 26.7505 3.18336 27.3672 3.80002L29.7339 6.16669C30.3339 6.76669 30.3505 7.71669 29.7839 8.33336Z" fill="#ADD4FF"/>
<path d="M33.2826 16.6667H6.61597V30C6.61597 35 8.28263 36.6667 13.2826 36.6667H26.616C31.616 36.6667 33.2826 35 33.2826 30V16.6667Z" stroke="#0057B7" stroke-width="2.48421" stroke-miterlimit="10" stroke-linecap="round" stroke-linejoin="round"/>
<path d="M35.834 11.6666V13.3333C35.834 15.1666 34.9507 16.6666 32.5007 16.6666H7.50069C4.95069 16.6666 4.16736 15.1666 4.16736 13.3333V11.6666C4.16736 9.83331 4.95069 8.33331 7.50069 8.33331H32.5007C34.9507 8.33331 35.834 9.83331 35.834 11.6666Z" stroke="#0057B7" stroke-width="2.48421" stroke-miterlimit="10" stroke-linecap="round" stroke-linejoin="round"/>
<path opacity="0.4" d="M19.3991 8.33336H10.1991C9.63238 7.71669 9.64905 6.76669 10.2491 6.16669L12.6157 3.80002C13.2324 3.18336 14.2491 3.18336 14.8657 3.80002L19.3991 8.33336Z" stroke="#0057B7" stroke-width="2.48421" stroke-miterlimit="10" stroke-linecap="round" stroke-linejoin="round"/>
<path opacity="0.4" d="M29.7839 8.33336H20.5839L25.1172 3.80002C25.7339 3.18336 26.7505 3.18336 27.3672 3.80002L29.7339 6.16669C30.3339 6.76669 30.3505 7.71669 29.7839 8.33336Z" stroke="#0057B7" stroke-width="2.48421" stroke-miterlimit="10" stroke-linecap="round" stroke-linejoin="round"/>
<path opacity="0.4" d="M14.8992 16.6667V25.2334C14.8992 26.5667 16.3659 27.35 17.4826 26.6334L19.0492 25.6C19.6159 25.2334 20.3326 25.2334 20.8826 25.6L22.3659 26.6C23.4659 27.3334 24.9492 26.55 24.9492 25.2167V16.6667H14.8992Z" stroke="#0057B7" stroke-width="2.48421" stroke-miterlimit="10" stroke-linecap="round" stroke-linejoin="round"/>
</svg>
