<svg width="41" height="41" viewBox="0 0 41 41" fill="none" xmlns="http://www.w3.org/2000/svg">
<path d="M37.4414 15.4407V25.5945C37.4414 31.9915 35.7577 35.4945 31.7405 36.7976C30.4408 37.2376 28.9048 37.4407 27.103 37.4407H18.2414C16.4396 37.4407 14.9036 37.2376 13.6039 36.7976C9.58665 35.4945 7.90295 31.9915 7.90295 25.5945V15.4407C7.90295 6.97916 10.8568 3.59454 18.2414 3.59454H27.103C34.4876 3.59454 37.4414 6.97916 37.4414 15.4407Z" fill="#ADD4FF"/>
<path opacity="0.4" d="M30.7506 36.5509C29.2839 36.9843 27.5506 37.1843 25.5173 37.1843H15.5173C13.4839 37.1843 11.7506 36.9843 10.2839 36.5509C10.6506 32.2176 15.1006 28.8009 20.5173 28.8009C25.9339 28.8009 30.3839 32.2176 30.7506 36.5509Z" stroke="#0057B7" stroke-width="1.41062" stroke-linecap="round" stroke-linejoin="round"/>
<path d="M37.1853 15.5176V25.5176C37.1853 31.8176 35.2853 35.2676 30.7519 36.5509C29.2853 36.9843 27.5519 37.1843 25.5186 37.1843H15.5186C13.4853 37.1843 11.7519 36.9843 10.2853 36.5509C5.75193 35.2676 3.85193 31.8176 3.85193 25.5176V15.5176C3.85193 7.18429 7.18526 3.85095 15.5186 3.85095H25.5186C33.8519 3.85095 37.1853 7.18429 37.1853 15.5176Z" stroke="#0057B7" stroke-width="1.41062" stroke-linecap="round" stroke-linejoin="round"/>
<path opacity="0.4" d="M26.4851 18.151C26.4851 21.451 23.8184 24.1343 20.5184 24.1343C17.2184 24.1343 14.5518 21.451 14.5518 18.151C14.5518 14.851 17.2184 12.1843 20.5184 12.1843C23.8184 12.1843 26.4851 14.851 26.4851 18.151Z" stroke="#0057B7" stroke-width="1.41062" stroke-linecap="round" stroke-linejoin="round"/>
</svg>
