<svg width="45" height="27" viewBox="0 0 45 27" fill="none" xmlns="http://www.w3.org/2000/svg">
<rect x="6" y="1" width="38" height="25" rx="5.46875" fill="#ADD4FF"/>
<rect x="1" y="1" width="42.9688" height="25" rx="5.46875" stroke="#0057B7" stroke-width="1.84375"/>
<path fill-rule="evenodd" clip-rule="evenodd" d="M24.7397 12.5347C24.7397 12.3961 24.7298 12.2589 24.7111 12.124H25.2977L25.6354 11.5352H24.5672C24.4733 11.2743 24.3429 11.0299 24.1782 10.8105C24.1394 10.7586 24.0985 10.7082 24.056 10.6594C23.6055 10.1424 23.0069 9.85785 22.3703 9.85785H18.6115C18.5751 9.85785 18.5455 9.88902 18.5455 9.92743V17.27C18.5455 17.3084 18.5751 17.3395 18.6115 17.3395H19.3826C19.419 17.3395 19.4485 17.3084 19.4485 17.27V15.2116H21.8692C22.085 15.2116 22.2899 15.3123 22.4286 15.4869L23.6831 17.0642C23.8218 17.2388 24.0267 17.3395 24.2425 17.3395H24.993C25.0275 17.3395 25.0464 17.2969 25.0242 17.269L23.2395 15.0248C23.542 14.8891 23.8197 14.6816 24.0562 14.4101C24.2803 14.1532 24.453 13.8549 24.5688 13.5312H25.2979L25.6356 12.9424H24.7123C24.7305 12.8085 24.7399 12.6726 24.7399 12.535L24.7397 12.5347ZM23.3917 13.7652C23.1142 14.0834 22.7515 14.2587 22.3703 14.2587H19.4481V10.8105H22.3703C22.7515 10.8105 23.114 10.9858 23.3917 11.3043C23.4545 11.3763 23.5108 11.4536 23.5609 11.5352H22.0867L21.749 12.124H23.7944C23.8225 12.2569 23.8372 12.3946 23.8372 12.5347C23.8372 12.6749 23.8227 12.8103 23.7951 12.9422H22.0869L21.7492 13.531H23.563C23.5124 13.6135 23.4555 13.6921 23.3919 13.7652H23.3917V13.7652Z" fill="#001747"/>
<path d="M31.0152 17.4828C30.4669 17.4828 29.9562 17.3851 29.4832 17.1898C29.017 16.9945 28.6126 16.7233 28.2699 16.3761C27.9271 16.0216 27.6598 15.6093 27.4678 15.1391C27.2759 14.6689 27.1799 14.1554 27.1799 13.5984C27.1799 13.0414 27.2759 12.5278 27.4678 12.0576C27.6598 11.5875 27.9271 11.1788 28.2699 10.8316C28.6126 10.4771 29.017 10.2023 29.4832 10.0069C29.9493 9.81164 30.46 9.71399 31.0152 9.71399C31.5636 9.71399 32.0675 9.81164 32.5267 10.0069C32.9929 10.195 33.3973 10.4663 33.7401 10.8207C34.0897 11.1679 34.357 11.5766 34.5421 12.0468C34.734 12.517 34.83 13.0342 34.83 13.5984C34.83 14.1626 34.734 14.6798 34.5421 15.15C34.357 15.6202 34.0897 16.0325 33.7401 16.3869C33.3973 16.7341 32.9929 17.0054 32.5267 17.2007C32.0675 17.3888 31.5636 17.4828 31.0152 17.4828ZM31.0152 16.5171C31.4128 16.5171 31.7796 16.4448 32.1155 16.3001C32.4582 16.1554 32.753 15.9529 32.9997 15.6925C33.2534 15.4249 33.4487 15.1138 33.5858 14.7594C33.7298 14.4049 33.8018 14.0179 33.8018 13.5984C33.8018 13.1788 33.7298 12.7918 33.5858 12.4374C33.4487 12.083 33.2534 11.7755 32.9997 11.5151C32.753 11.2475 32.4582 11.0413 32.1155 10.8967C31.7796 10.752 31.4128 10.6797 31.0152 10.6797C30.6108 10.6797 30.2372 10.752 29.8945 10.8967C29.5586 11.0413 29.2638 11.2475 29.0102 11.5151C28.7566 11.7755 28.5578 12.083 28.4138 12.4374C28.2767 12.7918 28.2082 13.1788 28.2082 13.5984C28.2082 14.0179 28.2767 14.4049 28.4138 14.7594C28.5578 15.1138 28.7566 15.4249 29.0102 15.6925C29.2638 15.9529 29.5586 16.1554 29.8945 16.3001C30.2372 16.4448 30.6108 16.5171 31.0152 16.5171Z" fill="#001747"/>
<rect x="9.59375" y="9.8551" width="0.90418" height="7.48429" rx="0.078125" fill="#001747"/>
<path fill-rule="evenodd" clip-rule="evenodd" d="M9.66157 9.8551C9.62411 9.8551 9.59375 9.88714 9.59375 9.92667V15.1394C9.59375 15.179 9.62411 15.211 9.66157 15.211H13.3757C14.7054 15.211 15.7833 14.0736 15.7833 12.6705V12.3956C15.7833 10.9925 14.7054 9.8551 13.3757 9.8551H9.66157ZM13.2577 10.827H10.4979V14.2501H13.2577C13.3783 14.2501 13.4386 14.2501 13.4896 14.2464C14.2332 14.1926 14.8252 13.568 14.8761 12.7833C14.8796 12.7295 14.8796 12.6659 14.8796 12.5386C14.8796 12.4112 14.8796 12.3476 14.8761 12.2938C14.8252 11.5091 14.2332 10.8845 13.4896 10.8307C13.4386 10.827 13.3783 10.827 13.2577 10.827Z" fill="#001747"/>
<path d="M35.7846 10.9142C35.7724 10.2278 35.5024 9.57459 35.0339 9.0983C34.5654 8.62201 33.9368 8.36164 33.2864 8.37445V8.37445C33.6086 8.3681 33.9265 8.2948 34.2219 8.15874C34.5172 8.02267 34.7843 7.82651 35.0078 7.58147C35.2313 7.33642 35.4068 7.0473 35.5244 6.73063C35.6419 6.41395 35.6992 6.07593 35.6929 5.73588V5.73588C35.6989 6.07598 35.7684 6.41149 35.8974 6.72324C36.0263 7.03498 36.2123 7.31684 36.4445 7.55271C36.6768 7.78857 36.9508 7.97382 37.2509 8.09785C37.551 8.22188 37.8714 8.28226 38.1936 8.27555V8.27555C37.8714 8.28183 37.5534 8.35508 37.258 8.49112C36.9626 8.62715 36.6955 8.8233 36.4719 9.06835C36.2484 9.31341 36.0728 9.60255 35.9552 9.91926C35.8376 10.236 35.7803 10.574 35.7866 10.9141L35.7846 10.9142Z" fill="white"/>
</svg>
