<svg width="47" height="28" viewBox="0 0 47 28" fill="none" xmlns="http://www.w3.org/2000/svg">
<path d="M30.5503 6.8L30.0311 14.0727C29.8364 16.2982 29.6806 18 26.1633 18H9.8353C6.31791 18 6.16216 16.2982 5.96747 14.0727L5.4483 6.8C5.34446 5.59273 5.68192 4.47272 6.29195 3.61454C6.30493 3.6 6.30493 3.6 6.31791 3.58545C7.03177 2.61091 8.10905 2 9.31613 2H26.6824C27.8895 2 28.9538 2.61091 29.6547 3.55636C29.6677 3.57091 29.6806 3.58545 29.6806 3.6C30.3166 4.45818 30.6671 5.57818 30.5503 6.8Z" fill="#ADD4FF"/>
<path d="M30.5461 6.8L29.9561 14.0727C29.7349 16.2982 29.5579 18 25.5609 18H7.00638C3.00934 18 2.83235 16.2982 2.61111 14.0727L2.02115 6.8C1.90315 5.59273 2.28663 4.47272 2.97984 3.61454C2.99459 3.6 2.99459 3.6 3.00934 3.58545C3.82055 2.61091 5.04473 2 6.41641 2H26.1508C27.5225 2 28.732 2.61091 29.5284 3.55636C29.5432 3.57091 29.5579 3.58545 29.5579 3.6C30.2806 4.45818 30.6788 5.57818 30.5461 6.8Z" stroke="#0057B7" stroke-width="2.36403" stroke-miterlimit="10"/>
<path d="M44.8354 14.8L44.3162 22.0727C44.1216 24.2982 43.9658 26 40.4484 26H24.1205C20.6031 26 20.4473 24.2982 20.2526 22.0727L19.7335 14.8C19.6296 13.5927 19.9671 12.4727 20.5771 11.6145C20.5901 11.6 20.5901 11.6 20.6031 11.5855C21.3169 10.6109 22.3942 10 23.6013 10H40.9676C42.1747 10 43.239 10.6109 43.9398 11.5564C43.9528 11.5709 43.9658 11.5855 43.9658 11.6C44.6018 12.4582 44.9522 13.5782 44.8354 14.8Z" fill="#ADD4FF"/>
<path d="M44.8313 14.8L44.2413 22.0727C44.0201 24.2982 43.8431 26 39.846 26H21.2915C17.2945 26 17.1175 24.2982 16.8963 22.0727L16.3063 14.8C16.1883 13.5927 16.5718 12.4727 17.265 11.6145C17.2797 11.6 17.2797 11.6 17.2945 11.5855C18.1057 10.6109 19.3299 10 20.7016 10H40.436C41.8077 10 43.0171 10.6109 43.8136 11.5564C43.8283 11.5709 43.8431 11.5855 43.8431 11.6C44.5658 12.4582 44.964 13.5782 44.8313 14.8Z" stroke="#0057B7" stroke-width="2.36403" stroke-miterlimit="10"/>
</svg>
