<svg width="40" height="40" viewBox="0 0 40 40" fill="none" xmlns="http://www.w3.org/2000/svg">
<path d="M35.1515 11.3637V28.0303C35.1515 33.0303 32.9798 36.3637 27.9124 36.3637H16.3299C11.2626 36.3637 9.09088 33.0303 9.09088 28.0303V11.3637C9.09088 6.36367 11.2626 3.03033 16.3299 3.03033H27.9124C32.9798 3.03033 35.1515 6.36367 35.1515 11.3637Z" fill="#ADD4FF"/>
<path d="M35 11.6666V28.3333C35 33.3333 32.5 36.6666 26.6667 36.6666H13.3333C7.5 36.6666 5 33.3333 5 28.3333V11.6666C5 6.66665 7.5 3.33331 13.3333 3.33331H26.6667C32.5 3.33331 35 6.66665 35 11.6666Z" stroke="#0057B7" stroke-width="2.5073" stroke-miterlimit="10" stroke-linecap="round" stroke-linejoin="round"/>
<path opacity="0.4" d="M27.0833 18.3333H12.9167C11.3167 18.3333 10 17.0166 10 15.4166V11.25C10 9.64998 11.3167 8.33331 12.9167 8.33331H27.0833C28.6833 8.33331 30 9.64998 30 11.25V15.4166C30 17.0166 28.6833 18.3333 27.0833 18.3333Z" stroke="#0057B7" stroke-width="2.5073" stroke-miterlimit="10" stroke-linecap="round" stroke-linejoin="round"/>
<path d="M17.1667 25.4667L13.3334 29.3" stroke="#0057B7" stroke-width="2.5073" stroke-miterlimit="10" stroke-linecap="round" stroke-linejoin="round"/>
<path d="M13.3834 25.5167L17.2167 29.35" stroke="#0057B7" stroke-width="2.5073" stroke-miterlimit="10" stroke-linecap="round" stroke-linejoin="round"/>
<path opacity="0.4" d="M27.4833 25.55H27.5166" stroke="#0057B7" stroke-width="2.5073" stroke-miterlimit="10" stroke-linecap="round" stroke-linejoin="round"/>
<path opacity="0.4" d="M24.15 29.1667V29.1333" stroke="#0057B7" stroke-width="2.5073" stroke-miterlimit="10" stroke-linecap="round" stroke-linejoin="round"/>
</svg>
