<svg width="34" height="31" viewBox="0 0 34 31" fill="none" xmlns="http://www.w3.org/2000/svg">
<path d="M19.1166 29.2899C18.66 29.4748 17.908 29.4748 17.4515 29.2899C13.5572 27.7643 4.85547 21.4003 4.85547 10.6138C4.85547 5.85232 8.19918 2 12.3217 2C14.7657 2 16.9277 3.35602 18.284 5.45168C19.6403 3.35602 21.8157 2 24.2463 2C28.3689 2 31.7126 5.85232 31.7126 10.6138C31.7126 21.4003 23.0109 27.7643 19.1166 29.2899Z" fill="#ADD4FF"/>
<path d="M17.8886 29.2899C17.3799 29.4748 16.5421 29.4748 16.0334 29.2899C11.6947 27.7643 2 21.4003 2 10.6138C2 5.85232 5.7253 2 10.3183 2C13.0412 2 15.45 3.35602 16.961 5.45168C18.4721 3.35602 20.8958 2 23.6037 2C28.1968 2 31.9221 5.85232 31.9221 10.6138C31.9221 21.4003 22.2273 27.7643 17.8886 29.2899Z" stroke="#0057B7" stroke-width="2.36403" stroke-linecap="round" stroke-linejoin="round"/>
<path d="M22.253 15.4364H11.5996" stroke="#0057B7" stroke-width="2.36403" stroke-miterlimit="10" stroke-linecap="round" stroke-linejoin="round"/>
<path d="M16.9279 10.2287V20.9117" stroke="#0057B7" stroke-width="2.36403" stroke-miterlimit="10" stroke-linecap="round" stroke-linejoin="round"/>
</svg>
