<svg width="41" height="35" viewBox="0 0 41 35" fill="none" xmlns="http://www.w3.org/2000/svg">
<path d="M23.668 6.09414C23.9854 5.27133 25.135 5.23231 25.5075 6.03172L25.9964 7.08121C26.1606 7.4336 26.5141 7.65891 26.9029 7.65891L29.2875 7.65891C30.2089 7.65891 30.64 8.79925 29.9491 9.40879L27.8124 11.2938C27.5278 11.5449 27.4099 11.9355 27.508 12.3022L28.2429 15.0487C28.4989 16.0053 27.3579 16.7122 26.6153 16.0571L25.0206 14.6501C24.7147 14.3802 24.2755 14.3232 23.9108 14.506L21.8499 15.5392C21.7701 15.5792 21.6821 15.6 21.5928 15.6V15.6C21.1546 15.6 20.8782 15.1285 21.0922 14.7461L22.3926 12.4229C22.6264 12.0052 22.5314 11.4804 22.1661 11.1712L21.1426 10.3048C20.4933 9.75514 20.7832 8.69735 21.622 8.55553L22.2337 8.45209C22.5818 8.39324 22.873 8.15528 23 7.82596L23.668 6.09414Z" fill="#ADD4FF"/>
<path d="M8.97458 31.0931L4.95138 27.6885C3.57862 26.5269 3.06684 24.0739 4.20465 22.6813C4.46042 22.3682 4.76797 22.0162 5.14113 21.6183C7.58353 19.0134 9.83669 18.8173 10.658 19.0449C12.4791 18.9573 16.389 19.0659 17.4603 20.2003C18.5315 21.3347 19.7277 21.4782 20.1919 21.4082H23.4592C25.2588 21.4082 26.8871 21.9684 27.4763 22.2485L33.9038 17.1542C34.4215 16.3839 35.9284 15.0955 37.8138 16.1038C39.6991 17.1122 38.9207 19.0099 38.2958 19.8326C34.85 23.0713 27.6905 29.8216 26.6193 30.914C25.5481 32.0063 26.4376 31.1065 25.8305 31.1766C23.8325 33.067 18.0844 32.4524 15.5991 32.2003C14.5784 32.0968 13.6796 31.9868 12.9351 31.9598C11.6987 31.915 9.91899 31.8923 8.97458 31.0931Z" fill="#ADD4FF"/>
<path d="M6.59129 33.0746L2.31533 29.0155C1.06055 27.8243 1.06286 25.8134 2.28137 24.5851C3.10491 23.755 4.08206 22.7486 5.1419 21.6183C7.58431 19.0134 9.83746 18.8173 10.6587 19.0449C12.4798 18.9573 16.3898 19.0659 17.461 20.2003C18.5323 21.3347 19.7285 21.4782 20.1927 21.4082H23.4599C25.2596 21.4082 26.8879 21.9684 27.4771 22.2485L33.9044 17.1542C34.4222 16.3839 35.9291 15.0955 37.8144 16.1038C39.6998 17.1122 38.9214 19.0099 38.2965 19.8326C34.8507 23.0713 27.6913 29.8216 26.6201 30.914C25.5488 32.0063 24.067 32.4195 23.4599 32.4895C21.0854 32.507 15.7149 32.479 13.2297 32.2269C12.0117 32.1034 10.967 32.4877 10.151 33.0252C9.07888 33.7313 7.52234 33.9585 6.59129 33.0746Z" stroke="#0057B7" stroke-width="2.36" stroke-linecap="round"/>
<path d="M13.8656 26.1336H24.5422C25.5667 26.0734 27.4324 25.1225 26.6991 21.8003" stroke="#0057B7" stroke-width="2.36" stroke-linecap="round"/>
<path d="M22.449 2.92711C22.7483 2.0058 24.0517 2.0058 24.3511 2.92711L25.4271 6.23865C25.5609 6.65067 25.9449 6.92963 26.3781 6.92963H29.8601C30.8288 6.92963 31.2316 8.16925 30.4479 8.73865L27.6309 10.7853C27.2804 11.0399 27.1338 11.4913 27.2676 11.9033L28.3436 15.2149C28.643 16.1362 27.5885 16.9023 26.8048 16.3329L23.9878 14.2863C23.6373 14.0316 23.1627 14.0316 22.8122 14.2863L19.9953 16.3329C19.2116 16.9023 18.1571 16.1362 18.4564 15.2149L19.5324 11.9033C19.6663 11.4913 19.5196 11.0399 19.1692 10.7853L16.3522 8.73865C15.5685 8.16925 15.9713 6.92963 16.94 6.92963H20.4219C20.8552 6.92963 21.2391 6.65067 21.373 6.23865L22.449 2.92711Z" stroke="#0057B7" stroke-width="2.36"/>
</svg>
