<svg width="39" height="38" viewBox="0 0 39 38" fill="none" xmlns="http://www.w3.org/2000/svg">
<path d="M29.2862 29.7223H22.7718L15.5245 34.8508C14.4496 35.6132 13.0002 34.7989 13.0002 33.4128V29.7223C8.11438 29.7223 4.85718 26.257 4.85718 21.0591V10.6632C4.85718 5.46527 8.11438 2 13.0002 2H29.2862C34.172 2 37.4292 5.46527 37.4292 10.6632V21.0591C37.4292 26.257 34.172 29.7223 29.2862 29.7223Z" fill="#ADD4FF"/>
<path d="M28.7389 12.8574L27.1425 10.093V9.44153H27.6746C27.8875 9.44153 28.0737 9.41219 28.2334 9.35349C28.3989 9.28893 28.5349 9.19796 28.6414 9.08058C28.7537 8.9632 28.8306 8.82234 28.872 8.658H27.1425V8.00653H28.8631C28.8276 7.85394 28.7655 7.71895 28.6769 7.60156C28.5941 7.48418 28.4817 7.39321 28.3398 7.32865C28.2038 7.25822 28.0383 7.223 27.8431 7.223H27.1425V6.57153H31.1425V7.223H29.75C29.8506 7.33452 29.9333 7.45483 29.9984 7.58396C30.0693 7.71308 30.1166 7.85394 30.1403 8.00653H31.1425V8.658H30.158C30.0989 9.09232 29.9304 9.43273 29.6525 9.67923C29.3746 9.91986 29.0168 10.0842 28.5793 10.1722L30.3177 12.8574H28.7389Z" fill="#0057B7"/>
<path d="M28.5017 30.3774H21.4346L13.5724 35.607C12.4063 36.3844 10.8339 35.5541 10.8339 34.1407V30.3774C5.53356 30.3774 2 26.8439 2 21.5435V10.9427C2 5.64239 5.53356 2.10883 10.8339 2.10883H28.5017C33.8021 2.10883 37.3356 5.64239 37.3356 10.9427V21.5435C37.3356 26.8439 33.8021 30.3774 28.5017 30.3774Z" stroke="#0057B7" stroke-width="2.36403" stroke-miterlimit="10" stroke-linecap="round" stroke-linejoin="round"/>
<path d="M19.4341 15.2508C21.7773 15.2508 23.6767 13.3513 23.6767 11.0082C23.6767 8.6651 21.7773 6.76562 19.4341 6.76562C17.091 6.76562 15.1915 8.6651 15.1915 11.0082C15.1915 13.3513 17.091 15.2508 19.4341 15.2508Z" stroke="#0057B7" stroke-width="2.36403" stroke-linecap="round" stroke-linejoin="round"/>
<path opacity="0.4" d="M26.7232 23.7361C26.7232 20.4523 23.4564 17.7964 19.4344 17.7964C15.4124 17.7964 12.1456 20.4523 12.1456 23.7361" stroke="#0057B7" stroke-width="2.36403" stroke-linecap="round" stroke-linejoin="round"/>
</svg>
