<svg width="41" height="41" viewBox="0 0 41 41" fill="none" xmlns="http://www.w3.org/2000/svg">
<path d="M20.478 4.57384L13.2148 7.69051C11.5409 8.40717 10.1727 10.6738 10.1727 12.7238V25.1072C10.1727 27.0738 11.3081 29.6572 12.6908 30.8405L18.9497 36.1905C21.002 37.9572 24.3789 37.9572 26.4312 36.1905L32.6901 30.8405C34.0729 29.6572 35.2082 27.0738 35.2082 25.1072V12.7238C35.2082 10.6738 33.8399 8.40717 32.1661 7.69051L24.9029 4.57384C23.6657 4.05717 21.6861 4.05717 20.478 4.57384Z" fill="#ADD4FF"/>
<path d="M18.3394 4.57378L10.0228 7.69045C8.10609 8.40711 6.53943 10.6738 6.53943 12.7238V25.1071C6.53943 27.0738 7.83945 29.6571 9.42278 30.8404L16.5894 36.1904C18.9394 37.9571 22.8061 37.9571 25.1561 36.1904L32.3228 30.8404C33.9061 29.6571 35.2061 27.0738 35.2061 25.1071V12.7238C35.2061 10.6738 33.6394 8.40711 31.7227 7.69045L23.4061 4.57378C21.9894 4.05711 19.7227 4.05711 18.3394 4.57378Z" stroke="#0057B7" stroke-width="2.26688" stroke-linecap="round" stroke-linejoin="round"/>
<path opacity="0.4" d="M20.8577 26.6106C24.6405 26.6106 27.7071 23.544 27.7071 19.7612C27.7071 15.9785 24.6405 12.9119 20.8577 12.9119C17.075 12.9119 14.0084 15.9785 14.0084 19.7612C14.0084 23.544 17.075 26.6106 20.8577 26.6106Z" stroke="#0057B7" stroke-width="2.26688" stroke-miterlimit="10" stroke-linecap="round" stroke-linejoin="round"/>
<path d="M20.4686 22.775L18.9377 20.1243V19.4996H19.448C19.6521 19.4996 19.8307 19.4714 19.9838 19.4151C20.1426 19.3532 20.273 19.266 20.375 19.1535C20.4828 19.0409 20.5565 18.9058 20.5962 18.7482H18.9377V18.1236H20.5877C20.5536 17.9772 20.4941 17.8478 20.4091 17.7352C20.3297 17.6227 20.222 17.5355 20.0859 17.4735C19.9555 17.406 19.7967 17.3722 19.6096 17.3722H18.9377V16.7476H22.7734V17.3722H21.4381C21.5345 17.4792 21.6139 17.5945 21.6763 17.7184C21.7443 17.8422 21.7897 17.9772 21.8123 18.1236H22.7734V18.7482H21.8293C21.7726 19.1647 21.6111 19.4911 21.3446 19.7275C21.0781 19.9582 20.7351 20.1158 20.3155 20.2002L21.9824 22.775H20.4686Z" fill="#0057B7"/>
</svg>
