<svg width="40" height="40" viewBox="0 0 40 40" fill="none" xmlns="http://www.w3.org/2000/svg">
<path d="M35.1515 11.3637V28.0303C35.1515 33.0303 32.9798 36.3637 27.9124 36.3637H16.3299C11.2626 36.3637 9.09088 33.0303 9.09088 28.0303V11.3637C9.09088 6.36367 11.2626 3.03033 16.3299 3.03033H27.9124C32.9798 3.03033 35.1515 6.36367 35.1515 11.3637Z" fill="#ADD4FF"/>
<path d="M35 11.6666V28.3333C35 33.3333 32.5 36.6666 26.6667 36.6666H13.3333C7.5 36.6666 5 33.3333 5 28.3333V11.6666C5 6.66665 7.5 3.33331 13.3333 3.33331H26.6667C32.5 3.33331 35 6.66665 35 11.6666Z" stroke="#0057B7" stroke-width="2.5073" stroke-miterlimit="10" stroke-linecap="round" stroke-linejoin="round"/>
<path d="M18.8987 26.6667L15.4078 20.577V19.1418H16.5715C17.0369 19.1418 17.4442 19.0772 17.7933 18.9479C18.1553 18.8057 18.4527 18.6053 18.6854 18.3467C18.9311 18.0881 19.0992 17.7778 19.1897 17.4158H15.4078V15.9806H19.1703C19.0927 15.6444 18.9569 15.3471 18.763 15.0885C18.582 14.8299 18.3363 14.6295 18.026 14.4873C17.7286 14.3321 17.3666 14.2545 16.94 14.2545H15.4078V12.8194H24.1545V14.2545H21.1097C21.3295 14.5002 21.5105 14.7653 21.6527 15.0497C21.8078 15.3341 21.9113 15.6444 21.963 15.9806H24.1545V17.4158H22.0018C21.8725 18.3725 21.504 19.1224 20.8963 19.6655C20.2886 20.1956 19.5064 20.5576 18.5497 20.7515L22.3509 26.6667H18.8987Z" fill="#0057B7"/>
</svg>
